#!OML:ASF H:\ManfredETheater\Project 1\Capture day 1\Session 1\subject.ASF
:FULLY-SPECIFIED
:DEGREES
263
root -11.5734 17.7706 -33.8725 -174.024 -25.1765 182.133
lowerback 5.36699 0.52428 0.477041
upperback -2.54809 0.797394 2.04218
thorax -5.68321 0.396711 1.7765
lowerneck -18.8033 -0.706543 -2.24546
upperneck 22.0469 -0.0114823 -2.71988
head 10.1547 -0.681636 -0.617039
rclavicle 5.77469e-014 1.23246e-014
rhumerus -37.1518 -3.45335 -86.7452
rradius 41.2334
rwrist -0.918258
rhand -23.2774 -2.36332
rfingers 7.12502
rthumb 3.17518 -32.3194
lclavicle 5.77469e-014 1.23246e-014
lhumerus -42.8571 6.4623 87.2357
lradius 38.219
lwrist -8.67578
lhand -15.0523 -2.34167
lfingers 7.12502
lthumb 11.1143 27.344
rfemur -17.4274 1.19335 22.7126
rtibia 36.2132
rfoot -25.0573 -12.7811
rtoes -29.3497
lfemur -23.3958 -9.47562 -19.1557
ltibia 46.2789
lfoot -27.4008 0.0588703
ltoes 7.33824
264
root -11.6151 17.764 -33.9316 -173.769 -25.1545 182.11
lowerback 5.35512 0.561791 0.555438
upperback -2.56976 0.852516 2.03097
thorax -5.69936 0.420535 1.71523
lowerneck -18.8195 -0.730005 -2.26644
upperneck 21.9037 -0.0328536 -2.7125
head 10.1062 -0.68598 -0.611913
rclavicle -7.53891e-014 1.11319e-014
rhumerus -37.2036 -2.38681 -87.3816
rradius 42.5541
rwrist -1.36575
rhand -23.2557 -2.26479
rfingers 7.12502
rthumb 3.19614 -32.2206
lclavicle -7.53891e-014 1.11319e-014
lhumerus -42.9508 6.16793 87.4658
lradius 38.589
lwrist -8.40379
lhand -14.9408 -2.30492
lfingers 7.12502
lthumb 11.2219 27.3749
rfemur -17.4621 1.24598 22.653
rtibia 36.2809
rfoot -25.2121 -12.9644
rtoes -29.6705
lfemur -23.376 -9.39599 -19.223
ltibia 46.2672
lfoot -27.645 -0.00125536
ltoes 7.43343
265
root -11.6575 17.7565 -33.9913 -173.512 -25.1488 182.081
lowerback 5.35065 0.595182 0.633294
upperback -2.58921 0.902244 2.01904
thorax -5.71711 0.441708 1.65403
lowerneck -18.8367 -0.756418 -2.29391
upperneck 21.7464 -0.0582504 -2.69526
head 10.053 -0.690927 -0.602613
rclavicle 2.02512e-014 -4.29375e-014
rhumerus -37.2927 -1.37803 -87.9619
rradius 43.9106
rwrist -1.7682
rhand -23.2267 -2.16963
rfingers 7.12502
rthumb 3.22414 -32.125
lclavicle 2.02512e-014 -4.29375e-014
lhumerus -43.0493 5.85016 87.71
lradius 39.02
lwrist -8.0827
lhand -14.8083 -2.25072
lfingers 7.12502
lthumb 11.3496 27.4222
rfemur -17.5062 1.28513 22.5878
rtibia 36.3786
rfoot -25.3618 -13.1534
rtoes -29.9727
lfemur -23.3557 -9.30642 -19.297
ltibia 46.2575
lfoot -27.887 -0.0887703
ltoes 7.52895
266
root -11.7006 17.748 -34.0518 -173.251 -25.1597 182.035
lowerback 5.35507 0.624306 0.703877
upperback -2.60574 0.945906 2.00369
thorax -5.73664 0.460164 1.59391
lowerneck -18.8593 -0.784864 -2.32711
upperneck 21.5764 -0.0858249 -2.67037
head 9.99633 -0.695902 -0.589848
rclavicle -1.22998e-013 -1.98785e-014
rhumerus -37.4159 -0.42999 -88.488
rradius 45.2936
rwrist -2.13738
rhand -23.207 -2.03483
rfingers 7.12502
rthumb 3.2432 -31.9899
lclavicle -1.22998e-013 -1.98785e-014
lhumerus -43.1536 5.5023 87.9709
lradius 39.5152
lwrist -7.70476
lhand -14.6634 -2.21203
lfingers 7.12502
lthumb 11.4893 27.4531
rfemur -17.5636 1.30163 22.5068
rtibia 36.5166
rfoot -25.5051 -13.337
rtoes -30.2415
lfemur -23.3324 -9.20858 -19.3886
ltibia 46.2496
lfoot -28.1278 -0.204328
ltoes 7.63569
267
root -11.7443 17.7381 -34.1129 -172.981 -25.1821 181.959
lowerback 5.36951 0.650178 0.750857
upperback -2.61867 0.983699 1.98279
thorax -5.75816 0.476671 1.54176
lowerneck -18.8839 -0.814594 -2.36675
upperneck 21.3906 -0.114735 -2.63682
head 9.93455 -0.700376 -0.573002
rclavicle 6.01821e-014 1.66979e-014
rhumerus -37.57 0.468179 -88.9643
rradius 46.6969
rwrist -2.47217
rhand -23.1767 -1.875
rfingers 7.12502
rthumb 3.27242 -31.8296
lclavicle 6.01821e-014 1.66979e-014
lhumerus -43.2681 5.1293 88.2462
lradius 40.084
lwrist -7.27661
lhand -14.4934 -2.18074
lfingers 7.12502
lthumb 11.6533 27.4752
rfemur -17.6442 1.29351 22.3973
rtibia 36.7095
rfoot -25.6374 -13.5134
rtoes -30.4807
lfemur -23.305 -9.10248 -19.511
ltibia 46.2414
lfoot -28.3705 -0.34519
ltoes 7.75294
268
root -11.7885 17.7269 -34.1744 -172.703 -25.2141 181.856
lowerback 5.40137 0.673331 0.779984
upperback -2.63188 1.01691 1.9558
thorax -5.78996 0.491614 1.49357
lowerneck -18.9025 -0.847741 -2.41271
upperneck 21.1862 -0.148871 -2.59313
head 9.8652 -0.70592 -0.55206
rclavicle -8.94531e-016 -1.86858e-014
rhumerus -37.7616 1.32271 -89.3968
rradius 48.1175
rwrist -2.77879
rhand -23.1487 -1.67898
rfingers 7.12502
rthumb 3.29953 -31.6332
lclavicle -8.94531e-016 -1.86858e-014
lhumerus -43.3941 4.72863 88.534
lradius 40.7158
lwrist -6.7997
lhand -14.3048 -2.17003
lfingers 7.12502
lthumb 11.8352 27.4755
rfemur -17.7556 1.25634 22.2641
rtibia 36.9709
rfoot -25.7559 -13.6771
rtoes -30.6773
lfemur -23.2721 -8.9832 -19.6601
ltibia 46.231
lfoot -28.6184 -0.513091
ltoes 7.8674
269
root -11.8328 17.714 -34.2364 -172.408 -25.2548 181.71
lowerback 5.44261 0.690336 0.767129
upperback -2.64553 1.03894 1.92004
thorax -5.82787 0.502701 1.46087
lowerneck -18.9077 -0.878089 -2.45883
upperneck 20.96 -0.181128 -2.54233
head 9.78583 -0.709102 -0.528074
rclavicle 3.08116e-015 -3.61788e-014
rhumerus -37.9894 2.1352 -89.7922
rradius 49.5491
rwrist -3.05758
rhand -23.1221 -1.44047
rfingers 7.12502
rthumb 3.32517 -31.3943
lclavicle 3.08116e-015 -3.61788e-014
lhumerus -43.5404 4.30966 88.8289
lradius 41.4186
lwrist -6.26984
lhand -14.1034 -2.17011
lfingers 7.12502
lthumb 12.0294 27.4642
rfemur -17.9102 1.17957 22.0912
rtibia 37.3162
rfoot -25.8578 -13.8201
rtoes -30.8183
lfemur -23.2335 -8.85209 -19.8523
ltibia 46.2151
lfoot -28.8746 -0.704914
ltoes 7.96949
270
root -11.8772 17.6997 -34.2991 -172.093 -25.3019 181.514
lowerback 5.49758 0.700469 0.708386
upperback -2.66515 1.04842 1.87208
thorax -5.88024 0.509378 1.44235
lowerneck -18.8795 -0.905126 -2.50187
upperneck 20.7057 -0.213347 -2.48313
head 9.69059 -0.710287 -0.50124
rclavicle 5.19822e-014 2.90226e-014
rhumerus -38.2627 2.89923 -90.157
rradius 50.9857
rwrist -3.30548
rhand -23.105 -1.15182
rfingers 7.12502
rthumb 3.34169 -31.1054
lclavicle 5.19822e-014 2.90226e-014
lhumerus -43.7163 3.86798 89.1273
lradius 42.1875
lwrist -5.68617
lhand -13.8946 -2.18439
lfingers 7.12502
lthumb 12.2308 27.438
rfemur -18.1136 1.06268 21.8745
rtibia 37.7576
rfoot -25.9452 -13.9367
rtoes -30.8851
lfemur -23.1858 -8.70759 -20.0927
ltibia 46.1911
lfoot -29.1403 -0.919907
ltoes 8.06509
271
root -11.9214 17.6838 -34.3621 -171.755 -25.347 181.27
lowerback 5.56406 0.705174 0.603478
upperback -2.68923 1.04697 1.81107
thorax -5.94426 0.512466 1.43716
lowerneck -18.8193 -0.928675 -2.5361
upperneck 20.416 -0.245645 -2.41972
head 9.5773 -0.709348 -0.473951
rclavicle -1.80894e-014 -1.51076e-014
rhumerus -38.5705 3.61065 -90.4962
rradius 52.4191
rwrist -3.521
rhand -23.0951 -0.814038
rfingers 7.12502
rthumb 3.35126 -30.7674
lclavicle -1.80894e-014 -1.51076e-014
lhumerus -43.9172 3.40885 89.4277
lradius 43.0261
lwrist -5.05157
lhand -13.6958 -2.19154
lfingers 7.12502
lthumb 12.4224 27.4193
rfemur -18.3799 0.911646 21.6157
rtibia 38.3081
rfoot -26.0121 -14.0258
rtoes -30.8606
lfemur -23.133 -8.54416 -20.3796
ltibia 46.1559
lfoot -29.4189 -1.15561
ltoes 8.167
